<svg width="36" height="26" viewBox="0 0 36 26" fill="none" xmlns="http://www.w3.org/2000/svg">
<path d="M7.96 25.4C6.04 25.4 4.34667 24.7733 2.88 23.52C1.36 22.1867 0.6 20.5733 0.6 18.68C0.6 16.76 1.26667 15.0267 2.6 13.48C3.93333 12.04 5.56 11.12 7.48 10.72C7.37333 10.32 7.32 9.86667 7.32 9.36C7.32 8.08 7.62667 6.78667 8.24 5.48C8.88 4.09333 9.70667 3.06667 10.72 2.4C12.6933 1.09333 14.96 0.439998 17.52 0.439998C19.36 0.439998 21.3733 0.773332 23.56 1.44C23.9067 1.52 24.56 1.73333 25.52 2.08C26.5067 2.4 27.8 2.85333 29.4 3.44C30.8667 2.42667 32.2133 1.92 33.44 1.92C34.64 1.92 35.24 2.37333 35.24 3.28C35.24 4.18667 34.44 4.64 32.84 4.64C32.0133 4.64 30.96 4.41333 29.68 3.96C28.1067 5.61333 26.6 8.25333 25.16 11.88H27.28L27.36 11.96V12.2L27.28 12.24H25.04C23.44 16.0267 21.5067 18.9067 19.24 20.88V20.84C18.4133 21.5867 17.5867 22.24 16.76 22.8C15.9333 23.3333 15.1067 23.7733 14.28 24.12C12.68 24.7867 10.7333 25.2 8.44 25.36C8.36 25.36 8.28 25.36 8.2 25.36C8.12 25.3867 8.04 25.4 7.96 25.4ZM8.48 24.8C10.6933 24.8 12.88 23.92 15.04 22.16C16.8 20.72 18.36 18.88 19.72 16.64C20.0133 16.1333 20.3733 15.52 20.8 14.8C21.2533 14.08 21.7733 13.2267 22.36 12.24H18.8L18.76 12.2V11.96L18.8 11.88H22.56C25.1467 7.72 27.28 5.01333 28.96 3.76C24.4533 2.32 20.72 1.6 17.76 1.6C14.7733 1.6 12.5333 2.30667 11.04 3.72C9.36 5.34667 8.52 7.34667 8.52 9.72C8.52 9.85333 8.52 10 8.52 10.16C8.52 10.2933 8.53333 10.4267 8.56 10.56C8.69333 10.56 8.8 10.56 8.88 10.56C8.98667 10.5333 9.09333 10.52 9.2 10.52C11.7333 10.52 13.28 11.6 13.84 13.76C14.88 13.3067 15.8267 12.6 16.68 11.64C17.6667 10.5733 18.16 9.53333 18.16 8.52C18.16 8.36 18.2133 8.28 18.32 8.28C18.4267 8.28 18.48 8.33333 18.48 8.44C18.48 8.46667 18.4667 8.50667 18.44 8.56C18.44 8.61333 18.44 8.66667 18.44 8.72C17.8533 11.36 16.3467 13.16 13.92 14.12C14 14.44 14.04 14.7867 14.04 15.16C14.04 16.6533 13.4533 17.96 12.28 19.08C11.1333 20.1467 9.8 20.68 8.28 20.68C8.12 20.68 8.04 20.6133 8.04 20.48C8.04 20.2933 8.17333 20.1867 8.44 20.16C8.57333 20.1333 8.74667 20.1067 8.96 20.08C9.2 20.0533 9.45333 20 9.72 19.92C11.7467 19.44 12.9867 18.2 13.44 16.2C13.4933 15.9867 13.5333 15.7733 13.56 15.56C13.5867 15.32 13.6 15.1067 13.6 14.92C13.6 14.8133 13.5867 14.7067 13.56 14.6C13.56 14.4667 13.56 14.3467 13.56 14.24C13 14.4267 12.4267 14.52 11.84 14.52C10.7733 14.52 9.88 14.2133 9.16 13.6C8.41333 12.9867 7.89333 12.1867 7.6 11.2C5.92 11.84 4.56 12.8933 3.52 14.36C2.45333 15.8533 1.92 17.4933 1.92 19.28C1.92 21.12 2.57333 22.52 3.88 23.48C5.05333 24.36 6.58667 24.8 8.48 24.8ZM32.88 4.32C34.2133 4.32 34.88 3.97333 34.88 3.28C34.88 2.53333 34.36 2.16 33.32 2.16C32.12 2.16 31.0133 2.65333 30 3.64C31.28 4.09333 32.24 4.32 32.88 4.32ZM11.96 14.16C12.4933 14.16 13 14.0667 13.48 13.88C13.24 12.9467 12.7333 12.2133 11.96 11.68C11.1867 11.1467 10.32 10.88 9.36 10.88C9.25333 10.88 9.13333 10.88 9 10.88C8.89333 10.88 8.77333 10.8933 8.64 10.92C8.72 11.3467 8.85333 11.7467 9.04 12.12C9.25333 12.4933 9.49333 12.84 9.76 13.16C10.4 13.8267 11.1333 14.16 11.96 14.16Z" fill="url(#paint0_linear_152_2)"/>
<path d="M1 25.24H24.88V25.4H1V25.24Z" fill="url(#paint1_linear_152_2)"/>
<defs>
<linearGradient id="paint0_linear_152_2" x1="13" y1="-2" x2="13" y2="28" gradientUnits="userSpaceOnUse">
<stop stop-color="#FFB800"/>
<stop offset="1" stop-color="#FFE9AF" stop-opacity="0.99"/>
</linearGradient>
<linearGradient id="paint1_linear_152_2" x1="13" y1="-2" x2="13" y2="28" gradientUnits="userSpaceOnUse">
<stop stop-color="#FFB800"/>
<stop offset="1" stop-color="#FFE9AF" stop-opacity="0.99"/>
</linearGradient>
</defs>
</svg>
