<svg width="25" height="25" viewBox="0 0 25 25" fill="none" xmlns="http://www.w3.org/2000/svg">
<path d="M4.68349 1.22901C3.96425 1.21339 3.25526 1.49268 2.76747 2.16602C1.82558 3.46876 1.61171 5.1172 1.88515 6.81153C2.15907 8.50587 2.91444 10.2588 3.96278 11.8604C5.77138 14.624 8.44228 16.9629 11.1815 17.5586V16.6455C8.84755 16.0352 6.36708 13.9258 4.69813 11.3818C3.70595 9.86329 3.00087 8.20802 2.75282 6.66993C2.50478 5.13673 2.70741 3.74952 3.47938 2.68165C3.7704 2.28028 4.06581 2.1211 4.45253 2.10157C4.58192 2.09522 4.72108 2.10157 4.87343 2.12501C5.48329 2.20802 6.26454 2.55616 7.10438 3.00489C8.65224 3.83106 10.3661 5.00489 12.0604 5.18556V4.29249C10.7323 4.09083 9.07704 3.06202 7.51942 2.2295C6.65517 1.76612 5.81532 1.36524 4.99013 1.25343C4.88759 1.23975 4.78651 1.23145 4.68349 1.22901ZM20.3124 1.22901C20.2099 1.22901 20.1073 1.23927 20.0048 1.25343C19.1845 1.36524 18.3446 1.76612 17.4804 2.2295C15.9227 3.06202 14.2675 4.09083 12.9393 4.29249V5.18067C14.6337 5.00001 16.3475 3.83058 17.8954 3.0044C18.7352 2.55567 19.5165 2.20753 20.1268 2.12452C20.7372 2.04151 21.1327 2.146 21.5184 2.68165C22.2899 3.74952 22.495 5.13673 22.246 6.66993C21.997 8.20802 21.2938 9.86329 20.3026 11.3818C18.6327 13.9258 16.1522 16.0352 13.8183 16.6455V17.5586C16.5575 16.9629 19.2284 14.624 21.035 11.8604C22.0849 10.2588 22.8417 8.50587 23.1151 6.81153C23.3886 5.1172 23.1737 3.46876 22.2313 2.16651C21.7431 1.49268 21.035 1.21388 20.3124 1.22901ZM12.0604 16.8067V18.3887H12.9393V16.8067C12.7929 16.8164 12.6464 16.8262 12.4999 16.8262C12.3534 16.8262 12.2069 16.8164 12.0604 16.8067ZM11.4599 19.2676L10.9472 19.6094L12.4999 20.6445L14.0526 19.6094L13.5399 19.2676H11.4599ZM10.5956 20.4297V21.9141L11.7089 21.1719L10.5956 20.4297ZM14.4042 20.4297L13.2909 21.1719L14.4042 21.9141V20.4297ZM12.4999 21.6992L10.9472 22.7344L12.4999 23.7695L14.0526 22.7344L12.4999 21.6992Z" fill="black"/>
</svg>
