<svg width="36" height="36" viewBox="0 0 36 36" fill="none" xmlns="http://www.w3.org/2000/svg">
<circle cx="18" cy="18" r="18" fill="black"/>
<path fill-rule="evenodd" clip-rule="evenodd" d="M17.811 27.0909L17.874 27.1269L17.8992 27.1413C17.9992 27.1953 18.111 27.2236 18.2246 27.2236C18.3382 27.2236 18.45 27.1953 18.5499 27.1413L18.5751 27.1278L18.639 27.0909C18.9911 26.8822 19.3345 26.6594 19.6686 26.4231C20.5336 25.8124 21.3418 25.1251 22.0834 24.3693C23.8329 22.5783 25.65 19.8873 25.65 16.425C25.65 14.4558 24.8678 12.5672 23.4753 11.1747C22.0829 9.78227 20.1943 9 18.225 9C16.2558 9 14.3672 9.78227 12.9748 11.1747C11.5823 12.5672 10.8 14.4558 10.8 16.425C10.8 19.8864 12.618 22.5783 14.3667 24.3693C15.108 25.125 15.9159 25.8124 16.7805 26.4231C17.115 26.6594 17.4587 26.8822 17.811 27.0909ZM18.225 19.125C18.9411 19.125 19.6279 18.8405 20.1342 18.3342C20.6406 17.8278 20.925 17.1411 20.925 16.425C20.925 15.7089 20.6406 15.0222 20.1342 14.5158C19.6279 14.0095 18.9411 13.725 18.225 13.725C17.509 13.725 16.8222 14.0095 16.3159 14.5158C15.8095 15.0222 15.525 15.7089 15.525 16.425C15.525 17.1411 15.8095 17.8278 16.3159 18.3342C16.8222 18.8405 17.509 19.125 18.225 19.125Z" fill="#FED561"/>
</svg>
