<svg width="110" height="22" viewBox="0 0 110 22" fill="none" xmlns="http://www.w3.org/2000/svg">
<path d="M11 0L14.2328 6.55041L21.4616 7.60081L16.2308 12.6996L17.4656 19.8992L11 16.5L4.53436 19.8992L5.76919 12.6996L0.538379 7.60081L7.76718 6.55041L11 0Z" fill="#FED561"/>
<path d="M33 0L36.2328 6.55041L43.4616 7.60081L38.2308 12.6996L39.4656 19.8992L33 16.5L26.5344 19.8992L27.7692 12.6996L22.5384 7.60081L29.7672 6.55041L33 0Z" fill="#FED561"/>
<path d="M55 0L58.2328 6.55041L65.4616 7.60081L60.2308 12.6996L61.4656 19.8992L55 16.5L48.5344 19.8992L49.7692 12.6996L44.5384 7.60081L51.7672 6.55041L55 0Z" fill="#FED561"/>
<path d="M77 0L80.2328 6.55041L87.4616 7.60081L82.2308 12.6996L83.4656 19.8992L77 16.5L70.5344 19.8992L71.7692 12.6996L66.5384 7.60081L73.7672 6.55041L77 0Z" fill="#FED561"/>
<path d="M99 0L102.233 6.55041L109.462 7.60081L104.231 12.6996L105.466 19.8992L99 16.5L92.5344 19.8992L93.7692 12.6996L88.5384 7.60081L95.7672 6.55041L99 0Z" fill="#FED561"/>
</svg>
