<svg width="113" height="30" viewBox="0 0 113 30" fill="none" xmlns="http://www.w3.org/2000/svg">
<path d="M36.1 19.4H40.58L40.12 22H32.22L34.7 7.96H38.12L36.1 19.4ZM47.9912 7.96L46.5112 16.34C46.4579 16.6867 46.4312 16.9267 46.4312 17.06C46.4312 17.6733 46.6046 18.1467 46.9512 18.48C47.2979 18.8 47.8112 18.96 48.4912 18.96C49.2912 18.96 49.9446 18.7333 50.4513 18.28C50.9579 17.8267 51.2846 17.18 51.4313 16.34L52.9113 7.96H56.3313L54.8513 16.34C54.6246 17.6067 54.1712 18.68 53.4912 19.56C52.8246 20.4267 52.0046 21.0733 51.0312 21.5C50.0712 21.9267 49.0246 22.14 47.8912 22.14C46.4246 22.14 45.2379 21.76 44.3312 21C43.4379 20.24 42.9912 19.14 42.9912 17.7C42.9912 17.2733 43.0312 16.82 43.1112 16.34L44.5712 7.96H47.9912ZM65.8128 15.04L69.2328 22H65.2528L63.1528 17.7L59.8728 22H55.9928L61.7528 14.86L58.3728 7.96H62.3528L64.4328 12.2L67.6528 7.96H71.5328L65.8128 15.04ZM76.7697 10.66L76.2697 13.58H80.8497L80.3897 16.16H75.8097L75.2497 19.3H80.4297L79.9497 22H71.3497L73.8297 7.96H82.4297L81.9497 10.66H76.7697ZM94.19 7.96L93.71 10.66H87.99L87.47 13.68H91.75L91.27 16.28H86.99L85.99 22H82.57L85.05 7.96H94.19ZM99.8075 7.96L97.3275 22H93.9075L96.3875 7.96H99.8075ZM112.786 7.96L112.326 10.66H108.586L106.586 22H103.166L105.166 10.66H101.446L101.926 7.96H112.786Z" fill="white"/>
<path d="M6.568 25.12C5.032 25.12 3.67733 24.6187 2.504 23.616C1.288 22.5493 0.68 21.2587 0.68 19.744C0.68 18.208 1.21333 16.8213 2.28 15.584C3.34667 14.432 4.648 13.696 6.184 13.376C6.09867 13.056 6.056 12.6933 6.056 12.288C6.056 11.264 6.30133 10.2293 6.792 9.184C7.304 8.07467 7.96533 7.25333 8.776 6.72C10.3547 5.67467 12.168 5.152 14.216 5.152C15.688 5.152 17.2987 5.41867 19.048 5.952C19.3253 6.016 19.848 6.18667 20.616 6.464C21.4053 6.72 22.44 7.08267 23.72 7.552C24.8933 6.74133 25.9707 6.336 26.952 6.336C27.912 6.336 28.392 6.69867 28.392 7.424C28.392 8.14933 27.752 8.512 26.472 8.512C25.8107 8.512 24.968 8.33067 23.944 7.968C22.6853 9.29067 21.48 11.4027 20.328 14.304H22.024L22.088 14.368V14.56L22.024 14.592H20.232C18.952 17.6213 17.4053 19.9253 15.592 21.504V21.472C14.9307 22.0693 14.2693 22.592 13.608 23.04C12.9467 23.4667 12.2853 23.8187 11.624 24.096C10.344 24.6293 8.78667 24.96 6.952 25.088C6.888 25.088 6.824 25.088 6.76 25.088C6.696 25.1093 6.632 25.12 6.568 25.12ZM6.984 24.64C8.75467 24.64 10.504 23.936 12.232 22.528C13.64 21.376 14.888 19.904 15.976 18.112C16.2107 17.7067 16.4987 17.216 16.84 16.64C17.2027 16.064 17.6187 15.3813 18.088 14.592H15.24L15.208 14.56V14.368L15.24 14.304H18.248C20.3173 10.976 22.024 8.81067 23.368 7.808C19.7627 6.656 16.776 6.08 14.408 6.08C12.0187 6.08 10.2267 6.64533 9.032 7.776C7.688 9.07733 7.016 10.6773 7.016 12.576C7.016 12.6827 7.016 12.8 7.016 12.928C7.016 13.0347 7.02667 13.1413 7.048 13.248C7.15467 13.248 7.24 13.248 7.304 13.248C7.38933 13.2267 7.47467 13.216 7.56 13.216C9.58667 13.216 10.824 14.08 11.272 15.808C12.104 15.4453 12.8613 14.88 13.544 14.112C14.3333 13.2587 14.728 12.4267 14.728 11.616C14.728 11.488 14.7707 11.424 14.856 11.424C14.9413 11.424 14.984 11.4667 14.984 11.552C14.984 11.5733 14.9733 11.6053 14.952 11.648C14.952 11.6907 14.952 11.7333 14.952 11.776C14.4827 13.888 13.2773 15.328 11.336 16.096C11.4 16.352 11.432 16.6293 11.432 16.928C11.432 18.1227 10.9627 19.168 10.024 20.064C9.10667 20.9173 8.04 21.344 6.824 21.344C6.696 21.344 6.632 21.2907 6.632 21.184C6.632 21.0347 6.73867 20.9493 6.952 20.928C7.05867 20.9067 7.19733 20.8853 7.368 20.864C7.56 20.8427 7.76267 20.8 7.976 20.736C9.59733 20.352 10.5893 19.36 10.952 17.76C10.9947 17.5893 11.0267 17.4187 11.048 17.248C11.0693 17.056 11.08 16.8853 11.08 16.736C11.08 16.6507 11.0693 16.5653 11.048 16.48C11.048 16.3733 11.048 16.2773 11.048 16.192C10.6 16.3413 10.1413 16.416 9.672 16.416C8.81867 16.416 8.104 16.1707 7.528 15.68C6.93067 15.1893 6.51467 14.5493 6.28 13.76C4.936 14.272 3.848 15.1147 3.016 16.288C2.16267 17.4827 1.736 18.7947 1.736 20.224C1.736 21.696 2.25867 22.816 3.304 23.584C4.24267 24.288 5.46933 24.64 6.984 24.64ZM26.504 8.256C27.5707 8.256 28.104 7.97867 28.104 7.424C28.104 6.82667 27.688 6.528 26.856 6.528C25.896 6.528 25.0107 6.92267 24.2 7.712C25.224 8.07467 25.992 8.256 26.504 8.256ZM9.768 16.128C10.1947 16.128 10.6 16.0533 10.984 15.904C10.792 15.1573 10.3867 14.5707 9.768 14.144C9.14933 13.7173 8.456 13.504 7.688 13.504C7.60267 13.504 7.50667 13.504 7.4 13.504C7.31467 13.504 7.21867 13.5147 7.112 13.536C7.176 13.8773 7.28267 14.1973 7.432 14.496C7.60267 14.7947 7.79467 15.072 8.008 15.328C8.52 15.8613 9.10667 16.128 9.768 16.128Z" fill="url(#paint0_linear_146_52)"/>
<path d="M1 24.992H20.104V25.12H1V24.992Z" fill="url(#paint1_linear_146_52)"/>
<defs>
<linearGradient id="paint0_linear_146_52" x1="11" y1="0" x2="11" y2="30" gradientUnits="userSpaceOnUse">
<stop stop-color="#FFB800"/>
<stop offset="1" stop-color="#FFE9AF" stop-opacity="0.99"/>
</linearGradient>
<linearGradient id="paint1_linear_146_52" x1="11" y1="0" x2="11" y2="30" gradientUnits="userSpaceOnUse">
<stop stop-color="#FFB800"/>
<stop offset="1" stop-color="#FFE9AF" stop-opacity="0.99"/>
</linearGradient>
</defs>
</svg>
